<?xml version="1.0" encoding="utf-8"?>
<!-- Generator: Adobe Illustrator 25.2.0, SVG Export Plug-In . SVG Version: 6.00 Build 0)  -->
<svg version="1.1" id="Layer_1" xmlns="http://www.w3.org/2000/svg" xmlns:xlink="http://www.w3.org/1999/xlink" x="0px" y="0px"
	 viewBox="0 0 16 16" style="enable-background:new 0 0 16 16;" xml:space="preserve">
<style type="text/css">
	.st0{fill:#151718;}
	.st1{fill:#00C483;}
</style>
<path class="st0" d="M13.12,16H2.88C1.3,16,0,14.7,0,13.12V2.88C0,1.3,1.3,0,2.88,0h10.23C14.7,0,16,1.3,16,2.88v10.23
	C16,14.7,14.7,16,13.12,16z"/>
<path class="st1" d="M4.31,10.98c-0.45-0.21-0.84-0.5-1.16-0.87c-0.03-0.03-0.02-0.08,0.01-0.11l0.8-0.76
	c0.03-0.03,0.08-0.03,0.11,0c1.3,1.37,4.16,0.77,2.86-0.66C6.91,8.58,6.91,8.57,6.9,8.57C5.79,7.87,4.21,7.62,4.25,6.1
	C4.23,3.62,7.8,3.36,9.23,4.88c0.03,0.03,0.03,0.08,0,0.11L8.42,5.81c-0.03,0.03-0.07,0.03-0.1,0.01c-0.44-0.35-1-0.61-1.59-0.61
	c0,0,0,0-0.01,0C5.93,5.12,5.25,5.95,5.94,6.54c0.53,0.44,1.74,0.68,2.2,1.24c0,0,0,0,0,0c0.99,0.94,0.42,2.57-0.73,3.17
	C6.59,11.42,5.21,11.42,4.31,10.98z"/>
<path class="st1" d="M12.94,11.29h-1.26c-0.03,0-0.06-0.02-0.06-0.05l-0.2-1.28c0-0.03-0.03-0.05-0.06-0.05H8.51
	c-0.02,0-0.08,0.03-0.1,0.05l-0.6,0.7c-0.01,0.02-0.25,0.15-0.55,0.3l-0.95,0.3c-0.05,0-0.07-0.02-0.05-0.06l4.22-6.98
	c0.01-0.02,0.03-0.03,0.05-0.03h1.15c0.03,0,0.05,0.02,0.06,0.05L13,11.22C13.01,11.25,12.98,11.29,12.94,11.29z M10.7,6.06
	L9.2,8.66C9.17,8.7,9.2,8.75,9.25,8.75h1.92c0.04,0,0.07-0.03,0.06-0.07l-0.4-2.63c0,0,0,0,0-0.01l0,0c0-0.06-0.09-0.08-0.11-0.02
	L10.7,6.06C10.7,6.05,10.7,6.05,10.7,6.06z"/>
<g>
</g>
<g>
</g>
<g>
</g>
<g>
</g>
<g>
</g>
<g>
</g>
<g>
</g>
<g>
</g>
<g>
</g>
<g>
</g>
<g>
</g>
</svg>
